<?xml version="1.0" encoding="UTF-8" standalone="no"?>
<svg
   xmlns:dc="http://purl.org/dc/elements/1.1/"
   xmlns:cc="http://creativecommons.org/ns#"
   xmlns:rdf="http://www.w3.org/1999/02/22-rdf-syntax-ns#"
   xmlns:svg="http://www.w3.org/2000/svg"
   xmlns="http://www.w3.org/2000/svg"
   xmlns:sodipodi="http://sodipodi.sourceforge.net/DTD/sodipodi-0.dtd"
   xmlns:inkscape="http://www.inkscape.org/namespaces/inkscape"
   height="48px"
   viewBox="0 -960 960 960"
   width="48px"
   fill="#cc3355"
   version="1.1"
   id="svg4"
   sodipodi:docname="this one please.svg"
   inkscape:version="1.0.1 (3bc2e813f5, 2020-09-07)">
  <metadata
     id="metadata10">
    <rdf:RDF>
      <cc:Work
         rdf:about="">
        <dc:format>image/svg+xml</dc:format>
        <dc:type
           rdf:resource="http://purl.org/dc/dcmitype/StillImage" />
        <dc:title></dc:title>
      </cc:Work>
    </rdf:RDF>
  </metadata>
  <defs
     id="defs8" />
  <sodipodi:namedview
     pagecolor="#ffffff"
     bordercolor="#666666"
     borderopacity="1"
     objecttolerance="10"
     gridtolerance="10"
     guidetolerance="10"
     inkscape:pageopacity="0"
     inkscape:pageshadow="2"
     inkscape:window-width="1920"
     inkscape:window-height="1051"
     id="namedview6"
     showgrid="false"
     inkscape:zoom="18.333333"
     inkscape:cx="24"
     inkscape:cy="23.890909"
     inkscape:window-x="-9"
     inkscape:window-y="-9"
     inkscape:window-maximized="1"
     inkscape:current-layer="svg4" />
  <path
     d="m627-287 45-45-159-160v-201h-60v225l174 181ZM480-80q-82 0-155-31.5t-127.5-86Q143-252 111.5-325T80-480q0-82 31.5-155t86-127.5Q252-817 325-848.5T480-880q82 0 155 31.5t127.5 86Q817-708 848.5-635T880-480q0 82-31.5 155t-86 127.5Q708-143 635-111.5T480-80Z"
     id="path2" />
  <path
     style="fill:#ffffff;stroke:#000000;stroke-width:0;stroke-miterlimit:4;stroke-dasharray:none"
     d="M 27.013636,29.095876 22.690909,24.59714 v -5.616752 -5.616752 h 1.472727 1.472728 l 0.0021,5.031819 0.0021,5.031818 3.949123,3.985588 3.949123,3.985588 -1.101271,1.098082 -1.101272,1.098081 z"
     id="path837"
     transform="matrix(20,0,0,20,0,-960)" />
</svg>
