<?xml version="1.0" encoding="UTF-8" standalone="no"?>
<svg
   xmlns:dc="http://purl.org/dc/elements/1.1/"
   xmlns:cc="http://creativecommons.org/ns#"
   xmlns:rdf="http://www.w3.org/1999/02/22-rdf-syntax-ns#"
   xmlns:svg="http://www.w3.org/2000/svg"
   xmlns="http://www.w3.org/2000/svg"
   xmlns:sodipodi="http://sodipodi.sourceforge.net/DTD/sodipodi-0.dtd"
   xmlns:inkscape="http://www.inkscape.org/namespaces/inkscape"
   height="48px"
   viewBox="0 -960 960 960"
   width="48px"
   fill="#cc3355"
   version="1.1"
   id="svg4"
   sodipodi:docname="schedule_48dp_FILL1_wght400_GRAD0_opsz20dddddd.svg"
   inkscape:version="1.0.1 (3bc2e813f5, 2020-09-07)">
  <metadata
     id="metadata10">
    <rdf:RDF>
      <cc:Work
         rdf:about="">
        <dc:format>image/svg+xml</dc:format>
        <dc:type
           rdf:resource="http://purl.org/dc/dcmitype/StillImage" />
        <dc:title></dc:title>
      </cc:Work>
    </rdf:RDF>
  </metadata>
  <defs
     id="defs8" />
  <sodipodi:namedview
     pagecolor="#ffffff"
     bordercolor="#666666"
     borderopacity="1"
     objecttolerance="10"
     gridtolerance="10"
     guidetolerance="10"
     inkscape:pageopacity="0"
     inkscape:pageshadow="2"
     inkscape:window-width="1920"
     inkscape:window-height="1051"
     id="namedview6"
     showgrid="false"
     inkscape:zoom="18.333333"
     inkscape:cx="24"
     inkscape:cy="21.709091"
     inkscape:window-x="-9"
     inkscape:window-y="-9"
     inkscape:window-maximized="1"
     inkscape:current-layer="svg4" />
  <path
     d="m614-310 51-51-149-149v-210h-72v240l170 170ZM480-96q-79.38 0-149.19-30T208.5-208.5Q156-261 126-330.96t-30-149.5Q96-560 126-630q30-70 82.5-122t122.46-82q69.96-30 149.5-30t149.55 30.24q70 30.24 121.79 82.08 51.78 51.84 81.99 121.92Q864-559.68 864-480q0 79.38-30 149.19T752-208.5Q700-156 629.87-126T480-96Z"
     id="path2" />
  <path
     style="fill:none;stroke:#000000;stroke-width:0.0545455"
     d="M 26.44077,28.213498 22.2,23.972467 V 17.986233 12 h 1.8 1.8 v 5.277123 5.277124 l 3.695306,3.695606 3.695306,3.695605 -1.254536,1.254536 -1.254535,1.254536 z"
     id="path835"
     transform="matrix(20,0,0,20,0,-960)" />
  <path
     style="fill:none;stroke:#000000;stroke-width:0.0545455"
     d="M 26.44077,28.213498 22.2,23.972467 V 17.986233 12 h 1.8 1.8 v 5.277123 5.277124 l 3.695306,3.695606 3.695306,3.695605 -1.254536,1.254536 -1.254535,1.254536 z"
     id="path837"
     transform="matrix(20,0,0,20,0,-960)" />
  <path
     style="fill:none;stroke:#000000;stroke-width:0.0545455"
     d="M 26.440778,28.213506 22.2,23.972467 V 17.986233 12 h 1.8 1.8 l 1.91e-4,5.25 1.91e-4,5.25 3.721376,3.723442 3.721376,3.723443 -1.252942,1.25383 c -0.689115,0.689607 -1.265471,1.25383 -1.280787,1.25383 -0.01532,0 -1.936199,-1.908467 -4.268627,-4.241039 z"
     id="path839"
     transform="matrix(20,0,0,20,0,-960)" />
  <path
     style="fill:none;stroke:#000000;stroke-width:0.0545455"
     d="M 26.440778,28.213506 22.2,23.972467 V 17.986233 12 h 1.8 1.8 v 5.249852 5.249852 l 3.72243,3.722727 3.722431,3.722728 -1.253804,1.254693 c -0.689592,0.690081 -1.266336,1.254693 -1.281652,1.254693 -0.01532,0 -1.936199,-1.908467 -4.268627,-4.241039 z"
     id="path841"
     transform="matrix(20,0,0,20,0,-960)" />
  <path
     style="fill:none;stroke:#000000;stroke-width:0.0545455"
     d="M 26.426417,28.246671 22.2,24.038796 V 18.019398 12 h 1.8 1.8 v 5.249852 5.249852 l 3.72243,3.722727 3.722431,3.722728 -1.253804,1.254693 c -0.689592,0.690081 -1.272798,1.254693 -1.296014,1.254693 -0.02321,0 -1.944097,-1.893543 -4.268626,-4.207874 z"
     id="path843"
     transform="matrix(20,0,0,20,0,-960)" />
  <path
     style="fill:none;stroke:#000000;stroke-width:0.0545455"
     d="M 26.417179,28.242706 22.2,24.030866 V 18.015433 12 h 1.8 1.8 v 5.249066 5.249066 l 3.722235,3.723709 3.722234,3.72371 -1.253608,1.254497 c -0.689484,0.689974 -1.27676,1.254497 -1.305056,1.254497 -0.0283,0 -1.949178,-1.895328 -4.268626,-4.211839 z"
     id="path845"
     transform="matrix(20,0,0,20,0,-960)" />
  <path
     style="fill:none;stroke:#000000;stroke-width:0.0545455"
     d="M 26.413504,28.240778 22.2,24.02701 V 18.013505 12 h 1.8 1.8 v 5.22258 5.22258 l 3.75,3.754493 3.75,3.754494 -1.281818,1.249694 c -0.705,0.687331 -1.306423,1.249921 -1.336496,1.250199 -0.03007,2.73e-4 -1.950754,-1.89569 -4.268182,-4.213262 z"
     id="path847"
     transform="matrix(20,0,0,20,0,-960)" />
  <path
     style="fill:none;stroke:#000000;stroke-width:0.0545455"
     d="M 26.386233,28.213506 22.145455,23.972467 V 17.986233 12 H 24 25.854545 v 5.249852 5.249852 L 29.577273,26.225989 33.3,29.952273 32.029206,31.20341 c -0.698937,0.688124 -1.300359,1.251135 -1.336495,1.251135 -0.03613,0 -1.974051,-1.908467 -4.306478,-4.241039 z"
     id="path849"
     transform="matrix(20,0,0,20,0,-960)" />
  <path
     style="fill:none;stroke:#000000;stroke-width:0.0545455"
     d="M 26.385815,28.23808 22.144357,24.027273 22.158542,18 22.172727,11.972727 H 24 25.827273 l 0.01387,5.263637 0.01387,5.263636 3.722494,3.725143 3.722495,3.725142 -1.265285,1.25213 c -0.695907,0.688672 -1.29727,1.250857 -1.336364,1.249301 -0.03909,-0.0016 -1.979734,-1.897692 -4.312536,-4.213636 z"
     id="path851"
     transform="matrix(20,0,0,20,0,-960)" />
  <path
     style="fill:none;stroke:#000000;stroke-width:0.0545455"
     d="m 26.383319,28.240909 -4.24329,-4.213636 0.0027,-6.040909 0.0027,-6.040909 H 24 25.854545 v 5.277125 5.277125 l 3.727522,3.736511 3.727522,3.736511 -1.269233,1.240909 c -0.698078,0.6825 -1.301748,1.240909 -1.34149,1.240909 -0.03974,0 -1.981737,-1.896136 -4.315547,-4.213636 z"
     id="path853"
     transform="matrix(20,0,0,20,0,-960)" />
  <path
     style="fill:#ffffff;stroke:#000000;stroke-width:0.0545455"
     d="M 26.380519,28.249307 22.145455,24.044069 V 17.994762 11.945455 H 24 25.854545 v 5.253384 5.253384 l 3.7349,3.767578 3.7349,3.767579 -1.280111,1.233583 c -0.704061,0.67847 -1.313532,1.233582 -1.354381,1.233582 -0.04085,0 -1.980049,-1.892356 -4.309334,-4.205238 z"
     id="path855"
     transform="matrix(20,0,0,20,0,-960)" />
</svg>
